<?xml version="1.0" encoding="UTF-8"?>
<svg id="Layer_1" data-name="Layer 1" xmlns="http://www.w3.org/2000/svg" viewBox="0 0 386.63 631.71">
  <defs>
    <style>
      .cls-1 {
        fill: #fff;
      }
    </style>
  </defs>
  <g id="Layer_1-2" data-name="Layer 1">
    <path class="cls-1" d="M97.61,345.71c30.51-28.91,71.33-44.02,114.92-42.53,45.08,1.53,86.69,20.61,117.17,53.71,2.68,2.91,7.21,3.1,10.13.42.77-.71,1.34-1.56,1.73-2.47.24-.19.49-.36.71-.59l42.32-43.29c2.77-2.83,2.72-7.37-.11-10.13-2.83-2.77-7.37-2.72-10.13.11l-39.61,40.51c-4.09-4.07-8.34-7.93-12.74-11.56l56.36-73.3c2.41-3.14,1.82-7.64-1.31-10.05-3.14-2.41-7.63-1.83-10.05,1.31l-56.4,73.36c-4.82-3.37-9.78-6.49-14.88-9.36l60.49-115.16c1.84-3.5.49-7.84-3.01-9.68-3.5-1.84-7.84-.49-9.68,3.01l-60.56,115.3c-5.14-2.37-10.4-4.49-15.76-6.37l57.31-163.42c1.31-3.73-.66-7.82-4.39-9.13-3.74-1.31-7.82.66-9.13,4.39l-57.49,163.95c-4.89-1.29-9.85-2.36-14.87-3.24l26.96-230.18c.46-3.93-2.35-7.49-6.28-7.95-3.92-.47-7.49,2.35-7.95,6.28l-26.93,229.93c-3.77-.36-7.56-.62-11.37-.75-4.18-.14-8.33-.13-12.45,0V7.17c0-3.96-3.21-7.17-7.17-7.17s-7.17,3.21-7.17,7.17v282.73c-7.92.89-15.71,2.31-23.32,4.23l-27.46-234.45c-.46-3.93-4.02-6.75-7.95-6.28-3.93.46-6.74,4.02-6.28,7.95l27.75,236.91c-4.32,1.48-8.56,3.14-12.73,4.96l-60.46-172.41c-1.31-3.73-5.4-5.7-9.13-4.39-3.73,1.31-5.7,5.4-4.39,9.13l61.02,174c-4.49,2.44-8.88,5.07-13.14,7.92l-66.93-127.43c-1.84-3.5-6.17-4.85-9.68-3.01s-4.85,6.17-3.01,9.68l67.92,129.32c-3.67,2.94-7.24,6.03-10.69,9.3-.16.15-.32.31-.48.47L19.68,247.86c-2.41-3.14-6.91-3.73-10.05-1.31-3.14,2.41-3.73,6.91-1.31,10.05l68.92,89.64c-3.29,3.74-6.4,7.61-9.33,11.61-.02-.02-.03-.04-.04-.06l-55.58-56.85c-2.77-2.83-7.3-2.88-10.13-.11-2.83,2.77-2.88,7.3-.11,10.13l55.58,56.85c.74.75,1.6,1.3,2.53,1.66-15.7,25.76-24.4,55.75-25.01,87.55-.92,48.11,17.2,94.77,49.71,128.02,30.38,31.07,70.71,46.67,111.07,46.67,39.18,0,78.39-14.69,108.55-44.18,61.23-59.86,62.35-158.39,2.48-219.62-51.68-52.86-136.72-53.82-189.59-2.14-25.61,25.03-39.93,58.54-40.34,94.35-.4,35.81,13.16,69.63,38.19,95.24,43.49,44.48,115.06,45.3,159.55,1.81,44.48-43.49,45.29-115.06,1.81-159.55-17.1-17.49-39.99-27.28-64.45-27.56-.35,0-.71,0-1.06,0-24.07,0-46.76,9.24-63.99,26.1-36.11,35.3-36.77,93.4-1.46,129.51,11.95,12.23,31.48,19.91,50.96,20.06.19,0,.38,0,.58,0,18.62,0,35.64-6.72,47.98-18.97,26.09-25.91,26.71-69.43,1.41-99.08-2.57-3.01-7.09-3.37-10.1-.8-3.01,2.57-3.37,7.09-.8,10.1,10.01,11.73,15.35,26.54,15.03,41.7-.31,14.74-5.86,28.21-15.64,37.91-9.73,9.66-23.33,14.92-38.35,14.81-15.8-.12-31.44-6.15-40.82-15.74-14.42-14.76-22.24-34.24-22.01-54.88.23-20.63,8.49-39.94,23.24-54.37,30.46-29.78,79.47-29.22,109.25,1.24,37.96,38.83,37.26,101.32-1.58,139.28-38.83,37.96-101.31,37.26-139.28-1.58-22.36-22.87-34.47-53.08-34.11-85.06.36-31.98,13.16-61.9,36.03-84.26,47.21-46.15,123.16-45.29,169.32,1.92,54.34,55.59,53.33,145.02-2.26,199.36-55.59,54.34-145.02,53.33-199.36-2.26-29.84-30.53-46.47-73.44-45.63-117.73.83-43.32,17.93-82.95,48.14-111.59Z"/>
  </g>
</svg>