<?xml version="1.0" encoding="UTF-8"?>
<svg id="Layer_2" data-name="Layer 2" xmlns="http://www.w3.org/2000/svg" viewBox="0 0 1080 1080">
  <defs>
    <style>
      .cls-1 {
        fill: #fff0d8;
      }

      .cls-2 {
        fill: #57463b;
      }
    </style>
  </defs>
  <g id="Layer_1-2" data-name="Layer 1">
    <circle class="cls-2" cx="540" cy="540" r="540"/>
    <path class="cls-1" d="M419.19,577.69c38.51-36.5,90.05-55.57,145.08-53.69,56.91,1.94,109.44,26.02,147.92,67.81,3.39,3.67,9.11,3.91,12.78.53.98-.9,1.69-1.97,2.18-3.11.3-.24.61-.46.89-.74l53.43-54.65c3.49-3.57,3.43-9.3-.14-12.79-3.57-3.49-9.3-3.43-12.79.14l-50,51.15c-5.16-5.14-10.53-10.01-16.08-14.59l71.15-92.54c3.04-3.96,2.3-9.64-1.66-12.69-3.96-3.04-9.64-2.31-12.69,1.66l-71.2,92.61c-6.08-4.25-12.35-8.2-18.79-11.82l76.36-145.39c2.32-4.42.62-9.89-3.8-12.21-4.42-2.32-9.89-.62-12.21,3.8l-76.45,145.56c-6.49-3-13.14-5.67-19.9-8.04l72.34-206.3c1.65-4.71-.83-9.88-5.54-11.53-4.72-1.65-9.88.83-11.53,5.54l-72.58,206.98c-6.17-1.62-12.43-2.98-18.77-4.09l34.04-290.58c.58-4.96-2.97-9.46-7.93-10.04-4.95-.59-9.46,2.97-10.04,7.93l-34,290.27c-4.75-.45-9.54-.78-14.35-.95-5.27-.18-10.51-.17-15.72,0V150.3c0-5-4.05-9.05-9.05-9.05s-9.05,4.05-9.05,9.05v356.93c-10,1.13-19.83,2.92-29.43,5.34l-34.67-295.98c-.58-4.96-5.08-8.52-10.04-7.93-4.96.58-8.51,5.08-7.93,10.04l35.03,299.08c-5.45,1.87-10.81,3.97-16.07,6.26l-76.33-217.65c-1.65-4.71-6.82-7.2-11.53-5.54-4.71,1.65-7.2,6.82-5.54,11.53l77.03,219.66c-5.67,3.07-11.2,6.41-16.58,9.99l-84.49-160.87c-2.32-4.42-7.79-6.12-12.21-3.8-4.42,2.32-6.13,7.79-3.8,12.21l85.74,163.25c-4.64,3.71-9.15,7.61-13.49,11.73-.21.2-.4.4-.61.59l-85.33-110.99c-3.05-3.96-8.73-4.7-12.69-1.66-3.96,3.05-4.7,8.73-1.66,12.69l87.01,113.17c-4.15,4.72-8.08,9.61-11.78,14.65-.02-.02-.03-.05-.06-.07l-70.16-71.77c-3.49-3.57-9.22-3.64-12.79-.14-3.57,3.49-3.64,9.22-.14,12.79l70.16,71.77c.93.95,2.03,1.64,3.19,2.09-19.83,32.52-30.8,70.38-31.57,110.53-1.16,60.73,21.71,119.64,62.75,161.62,38.35,39.23,89.26,58.91,140.22,58.91,49.46,0,98.96-18.55,137.04-55.78,77.3-75.57,78.71-199.95,3.14-277.26-65.24-66.73-172.6-67.95-239.34-2.71-32.33,31.6-50.41,73.9-50.92,119.11-.51,45.21,16.61,87.9,48.21,120.23,54.9,56.16,145.26,57.18,201.42,2.28,56.16-54.9,57.18-145.26,2.28-201.42-21.59-22.08-50.48-34.44-81.37-34.79-.45,0-.9,0-1.34,0-30.38,0-59.03,11.67-80.79,32.94-45.59,44.57-46.42,117.91-1.85,163.5,15.09,15.43,39.74,25.13,64.33,25.32.24,0,.49,0,.73,0,23.51,0,45-8.49,60.57-23.95,32.94-32.7,33.72-87.64,1.78-125.08-3.24-3.8-8.95-4.25-12.75-1.01-3.8,3.24-4.25,8.95-1.01,12.75,12.64,14.81,19.38,33.5,18.97,52.64-.39,18.61-7.4,35.61-19.74,47.86-12.28,12.2-29.45,18.84-48.42,18.69-19.94-.15-39.69-7.76-51.53-19.87-18.21-18.63-28.08-43.23-27.78-69.28.29-26.05,10.72-50.42,29.34-68.63,38.45-37.59,100.32-36.89,137.91,1.56,47.93,49.03,47.03,127.91-1.99,175.83-49.03,47.93-127.9,47.04-175.83-1.99-28.22-28.87-43.52-67.01-43.06-107.38.46-40.37,16.61-78.15,45.48-106.38,59.6-58.26,155.48-57.18,213.75,2.42,68.6,70.17,67.32,183.07-2.85,251.67-70.17,68.6-183.07,67.32-251.67-2.85-37.67-38.54-58.67-92.71-57.6-148.63,1.04-54.69,22.63-104.72,60.78-140.87Z"/>
  </g>
</svg>